<?xml version="1.0" encoding="UTF-8"?>
<svg width="60" height="60" viewBox="0 0 60 60" fill="none" xmlns="http://www.w3.org/2000/svg">
<rect width="60" height="60" rx="8" fill="#E5E7EB"/>
<path d="M30 15C22.268 15 16 21.268 16 29C16 36.732 22.268 43 30 43C37.732 43 44 36.732 44 29C44 21.268 37.732 15 30 15ZM30 18C36.065 18 41 22.935 41 29C41 35.065 36.065 40 30 40C23.935 40 19 35.065 19 29C19 22.935 23.935 18 30 18Z" fill="#9CA3AF"/>
<path d="M30 22C28.343 22 27 23.343 27 25C27 26.657 28.343 28 30 28C31.657 28 33 26.657 33 25C33 23.343 31.657 22 30 22Z" fill="#9CA3AF"/>
<path d="M25 32C25 30.343 26.343 29 28 29H32C33.657 29 35 30.343 35 32V35H25V32Z" fill="#9CA3AF"/>
</svg>